#!OML:ASF F:\VICON\USERDATA\INSTALL\rory3\rory3.ASF
:FULLY-SPECIFIED
:DEGREES
194
root 4.73985 17.373 3.01825 14.8965 -23.1161 -6.29505
lowerback -3.23674 3.37317 3.62531
upperback -7.0008 4.49865 0.373142
thorax -5.2039 2.05466 -1.68249
lowerneck -11.6688 3.50226 2.28637
upperneck 40.3443 4.15122 0.874441
head 16.4928 2.11126 0.6538
rclavicle -8.3502e-014 -3.69739e-014
rhumerus 18.223 -8.89997 -14.2595
rradius 118.412
rwrist -51.884
rhand -4.88119 -44.2681
rfingers 7.12502
rthumb 20.9076 -73.1614
lclavicle -8.3502e-014 -3.69739e-014
lhumerus 26.4765 24.9508 3.88646
lradius 74.6434
lwrist 61.2804
lhand -29.7112 -28.5763
lfingers 7.12502
lthumb -3.03854 1.38177
rfemur -37.3924 -12.8551 8.37933
rtibia 35.1554
rfoot 22.5804 -27.5705
rtoes 9.07891
lfemur -24.9401 3.38029 -24.9049
ltibia 29.4548
lfoot -16.6168 14.532
ltoes 12.1332
195
root 4.74154 17.3707 3.00885 14.7901 -22.9776 -6.14111
lowerback -3.13999 3.27096 3.402
upperback -6.9579 4.36658 0.394218
thorax -5.23641 2.0008 -1.54157
lowerneck -12.0111 3.51946 2.39267
upperneck 40.6492 4.19376 0.740466
head 16.7546 2.12075 0.597557
rclavicle -6.2232e-014 -6.75868e-015
rhumerus 18.3457 -8.82555 -14.4999
rradius 118.391
rwrist -51.6164
rhand -4.79425 -44.3179
rfingers 7.12502
rthumb 20.9911 -73.202
lclavicle -6.2232e-014 -6.75868e-015
lhumerus 26.3662 24.856 4.03456
lradius 74.8733
lwrist 61.6281
lhand -29.5865 -28.5427
lfingers 7.12502
lthumb -2.91811 1.41713
rfemur -37.7216 -12.7205 8.30793
rtibia 35.3215
rfoot 22.0741 -28.4428
rtoes 12.5207
lfemur -24.952 3.25692 -25.0251
ltibia 29.4865
lfoot -16.4487 14.5549
ltoes 11.4499
196
root 4.74118 17.3666 2.99946 14.6335 -22.9094 -5.9483
lowerback -2.96936 3.18846 3.12633
upperback -6.99029 4.26498 0.416075
thorax -5.39226 1.96154 -1.37789
lowerneck -11.9972 3.50137 2.34015
upperneck 40.8724 4.19628 0.703773
head 16.8737 2.10527 0.594592
rclavicle -2.6749e-014 5.96354e-015
rhumerus 18.3591 -8.45994 -14.6353
rradius 118.349
rwrist -51.3187
rhand -5.02993 -44.1193
rfingers 7.12502
rthumb 20.7647 -73.0283
lclavicle -2.6749e-014 5.96354e-015
lhumerus 26.2211 24.5519 4.17581
lradius 75.0676
lwrist 61.9468
lhand -29.5014 -29.1489
lfingers 7.12502
lthumb -2.83594 0.812031
rfemur -38.052 -12.5789 8.19874
rtibia 35.525
rfoot 21.4697 -29.0638
rtoes 16.0951
lfemur -24.8855 3.16765 -25.188
ltibia 29.4526
lfoot -16.3788 14.4849
ltoes 11.6546
197
root 4.73989 17.3621 2.99365 14.4832 -22.9676 -5.74434
lowerback -2.91589 3.18011 2.88069
upperback -7.01351 4.25448 0.394106
thorax -5.4623 1.96702 -1.269
lowerneck -11.7742 3.39008 2.15861
upperneck 40.9712 4.0653 0.740291
head 16.8621 2.02722 0.616266
rclavicle 1.76173e-014 -7.15625e-015
rhumerus 18.1265 -8.10241 -14.6575
rradius 118.421
rwrist -51.3109
rhand -4.87678 -44.0036
rfingers 7.12502
rthumb 20.9118 -72.8965
lclavicle 1.76173e-014 -7.15625e-015
lhumerus 26.2042 24.1991 4.46159
lradius 75.2553
lwrist 62.0239
lhand -29.7534 -30.2762
lfingers 7.12502
lthumb -3.07929 -0.318687
rfemur -38.4156 -12.2949 8.04888
rtibia 35.7239
rfoot 20.3488 -29.8188
rtoes 19.1552
lfemur -24.8097 3.137 -25.377
ltibia 29.3974
lfoot -16.3298 14.4599
ltoes 11.8207
198
root 4.73959 17.3583 2.99242 14.3332 -23.0252 -5.52692
lowerback -2.94514 3.18945 2.68211
upperback -6.98496 4.26169 0.33127
thorax -5.42336 1.98032 -1.22152
lowerneck -11.6855 3.24761 2.00377
upperneck 41.0332 3.87779 0.769289
head 16.8657 1.92857 0.622993
rclavicle -7.10655e-015 -5.1684e-015
rhumerus 17.7788 -7.88146 -14.665
rradius 118.562
rwrist -51.6106
rhand -4.65504 -44.0287
rfingers 7.12502
rthumb 21.1248 -72.8978
lclavicle -7.10655e-015 -5.1684e-015
lhumerus 26.1929 23.846 4.67923
lradius 75.4646
lwrist 62.1289
lhand -29.6548 -30.1279
lfingers 7.12502
lthumb -2.98405 -0.169066
rfemur -38.8074 -12.162 7.95714
rtibia 35.8813
rfoot 20.4007 -29.6593
rtoes 19.1181
lfemur -24.7503 3.11336 -25.5874
ltibia 29.3901
lfoot -16.344 14.4319
ltoes 11.8157
199
root 4.74088 17.3546 2.98942 14.2203 -22.969 -5.47556
lowerback -2.86668 3.16574 2.65065
upperback -6.9676 4.23258 0.327863
thorax -5.45234 1.96703 -1.21152
lowerneck -11.5765 3.13446 1.77683
upperneck 41.0039 3.719 0.891702
head 16.8087 1.84475 0.687356
rclavicle 6.61829e-014 1.23246e-014
rhumerus 17.6298 -7.66921 -14.7789
rradius 118.607
rwrist -51.7319
rhand -4.44753 -44.0198
rfingers 7.12502
rthumb 21.3242 -72.8666
lclavicle 6.61829e-014 1.23246e-014
lhumerus 26.1341 23.5187 4.8767
lradius 75.6739
lwrist 62.1937
lhand -29.1739 -28.909
lfingers 7.12502
lthumb -2.51968 1.05591
rfemur -39.1821 -12.2212 8.13728
rtibia 36.0195
rfoot 22.3882 -28.0417
rtoes 14.4064
lfemur -24.695 3.1319 -25.6315
ltibia 29.4246
lfoot -16.2571 14.4049
ltoes 11.1516
200
root 4.74056 17.3504 2.9804 14.1601 -22.8986 -5.46906
lowerback -2.70656 3.12239 2.6004
upperback -7.008 4.18224 0.352211
thorax -5.5934 1.94241 -1.16911
lowerneck -11.188 3.06621 1.50989
upperneck 40.8015 3.61413 1.086
head 16.5833 1.79017 0.790057
rclavicle 9.49445e-014 2.8625e-014
rhumerus 17.5787 -7.41694 -14.9586
rradius 118.634
rwrist -51.6882
rhand -4.15862 -44.061
rfingers 7.12502
rthumb 21.6016 -72.8762
lclavicle 9.49445e-014 2.8625e-014
lhumerus 26.043 23.1793 5.05169
lradius 75.935
lwrist 62.3147
lhand -29.5085 -30.0176
lfingers 7.12502
lthumb -2.84281 -0.0567783
rfemur -39.5965 -12.1235 8.32282
rtibia 36.1715
rfoot 24.0012 -26.4768
rtoes 10.3638
lfemur -24.7124 3.22506 -25.6298
ltibia 29.4864
lfoot -16.1467 14.3322
ltoes 10.5668
